# xmcd
#
# Track frame offsets:
#	150
#	17870
#	36145
#	51197
#	69050
#	88005
#	105220
#	119830
#	137305
#	158545
#	176687
#	200770
#	219030
#	233385
#	252117
#	271405
#	288352
#	308535
#	326747
#
# Disc length: 4569 seconds
#
# Revision: 2
# Processed by: cddbd v1.5.2PL0 Copyright (c) Steve Scherf et al.
# Submitted via: audiograbber 1.83.01
#
DISCID=f711d713
DTITLE=Hiphop Unlimited - Hiphop Unlimited
DYEAR=1997
DGENRE=Hip-Hop
TTITLE0=Ghetto People Featuring L Viz - In the Ghetto (Ghetto Mix)
TTITLE1=Down Low - Potion (Potion Single Mix)
TTITLE2=Nonchalant - Until the Day (New Radio Edit)
TTITLE3=Dafunk - You Aint Neva Lied (Hoffs Radio Version)
TTITLE4=ICE T - The Lane (EVA Mix)
TTITLE5=Lost Boyz - Music Makes Me High (Radio Mix)
TTITLE6=Naughty By Nature - Sunshine
TTITLE7=T. - Nothing But An F-Thang (J. and M. Airplay Mix)
TTITLE8=The Pharcyde - She Said (Radio Version)
TTITLE9=Party Jam - Dont Stop The Music
TTITLE10=Arrested Development - United Minds
TTITLE11=Funky Aztecs Featuring 2 Pac - Slipping Into Darkness (Salsa Con Soul 
TTITLE11=Food Mix)
TTITLE12=Digital Underground Featuring Luniz - We Got More
TTITLE13=Dazzie Dee Featuring Coolio and Comptons Most Wanted MC Chill - On My Ci
TTITLE13=de
TTITLE14=House Of Pain - Fed Up (Remix Featuring Guru)
TTITLE15=MC Lyte - Everyday (Radio Version - Clean)
TTITLE16=Ro Cee - Sho Respect (Clean Radio Edit)
TTITLE17=Me Phi Me - Black Sunshine (Hiphop Mix)
TTITLE18=Vladimir - Hands On My Body (Lazy Mix)
EXTD=
EXTT0=
EXTT1=
EXTT2=
EXTT3=
EXTT4=
EXTT5=
EXTT6=
EXTT7=
EXTT8=
EXTT9=
EXTT10=
EXTT11=
EXTT12=
EXTT13=
EXTT14=
EXTT15=
EXTT16=
EXTT17=
EXTT18=
PLAYORDER=
